<svg width="89" height="106" viewBox="0 0 89 106" fill="none" xmlns="http://www.w3.org/2000/svg">
<path opacity="0.2" d="M80.186 42.049C82.15 40.437 83.189 37.943 82.973 35.416C82.967 34.489 82.654 33.447 82.069 32.43C81.305 31.005 80.151 29.909 78.787 29.214C78.646 29.14 78.507 29.067 78.366 29.005C78.182 28.925 77.995 28.859 77.806 28.794C77.719 28.766 77.633 28.735 77.547 28.712C76.612 28.424 75.628 28.29 74.63 28.374C75.599 26.492 75.732 24.301 75.054 22.325C74.779 20.956 73.749 19.451 72.166 18.324C70.146 16.885 67.852 16.514 66.405 17.229C65.61 17.37 64.833 17.635 64.105 18.025C64.311 15.928 63.639 13.851 62.3 12.27C62.098 12.029 61.869 11.795 61.62 11.57C61.417 11.384 61.193 11.219 60.967 11.054C60.862 10.977 60.766 10.896 60.655 10.823C60.478 10.707 60.29 10.607 60.102 10.505C59.968 10.43 59.846 10.346 59.706 10.277C59.621 10.235 59.535 10.209 59.449 10.17C59.417 10.156 59.39 10.137 59.358 10.123C59.327 10.11 59.295 10.105 59.265 10.093C57.417 9.30399 55.555 9.24501 54.298 9.85101C52.839 10.269 51.507 11.097 50.506 12.283C49.508 9.16799 46.591 6.91199 43.145 6.91199C39.653 6.91199 36.705 9.22801 35.746 12.407C35.043 11.55 34.162 10.886 33.194 10.407C32.006 9.49401 29.989 9.154 27.859 9.672C25.545 10.234 23.791 11.632 23.296 13.125C22.38 14.546 21.926 16.243 22.071 17.964C19.163 16.467 15.505 16.934 13.068 19.371C10.599 21.84 10.152 25.563 11.722 28.489C8.41698 28.164 5.15198 30.007 3.82098 33.235C2.50698 36.421 3.48098 39.977 5.98098 42.087C2.86598 43.085 0.609985 46.002 0.609985 49.448C0.609985 52.94 2.92598 55.888 6.10498 56.847C3.53798 58.954 2.53299 62.566 3.87399 65.79C5.19799 68.972 8.40199 70.798 11.661 70.522C10.815 72.165 10.619 74.043 11.028 75.809C10.956 76.023 10.884 76.237 10.813 76.451C10.811 76.458 10.809 76.464 10.806 76.471C10.689 76.822 10.572 77.173 10.455 77.524C10.431 77.597 10.407 77.67 10.383 77.743C10.287 78.032 10.192 78.321 10.097 78.61C10.068 78.698 10.039 78.786 10.01 78.873C9.92099 79.144 9.83299 79.413 9.74499 79.683C9.71399 79.779 9.68199 79.874 9.65099 79.97C9.55999 80.248 9.46998 80.525 9.38098 80.801C9.36298 80.857 9.34398 80.914 9.32598 80.971C6.66898 89.184 4.65298 96.3 5.44498 96.84C7.37898 98.159 22.05 92.536 22.05 92.536C22.05 92.536 32.329 106.199 34.67 105.833C35.52 105.7 37.45 100.147 39.563 93.13C39.569 93.11 39.575 93.091 39.581 93.071C39.753 92.501 39.925 91.922 40.099 91.335C41.036 91.739 42.058 91.984 43.143 91.984C44.229 91.984 45.25 91.738 46.187 91.334C46.197 91.37 46.208 91.405 46.218 91.441C46.37 91.956 46.522 92.464 46.673 92.966C46.701 93.058 46.729 93.15 46.756 93.242C46.909 93.748 47.06 94.247 47.211 94.736C47.214 94.746 47.217 94.757 47.22 94.767C49.134 100.992 50.832 105.71 51.615 105.832C53.957 106.198 64.235 92.535 64.235 92.535C64.235 92.535 78.906 98.159 80.84 96.839C81.795 96.188 78.668 85.978 75.257 75.809C75.675 74.002 75.46 72.077 74.564 70.407C77.869 70.732 81.134 68.889 82.465 65.661C83.779 62.475 82.805 58.918 80.305 56.809C83.127 55.905 85.225 53.421 85.598 50.401C85.638 50.148 85.662 49.888 85.662 49.613C85.663 49.557 85.675 49.504 85.675 49.448C85.682 45.957 83.365 43.009 80.186 42.049Z" fill="black"/>
<path d="M70.123 49.456L45.298 57.095L20.473 49.456C20.473 49.456 5.665 89.974 7.599 91.293C9.533 92.612 24.204 86.989 24.204 86.989C24.204 86.989 34.483 100.652 36.824 100.286C38.152 100.079 42.116 86.646 45.297 75.058C48.479 86.646 52.442 100.079 53.77 100.286C56.112 100.652 66.39 86.989 66.39 86.989C66.39 86.989 81.061 92.613 82.995 91.293C84.931 89.974 70.123 49.456 70.123 49.456Z" fill="#FF2B42"/>
<path d="M70.122 49.456L45.297 57.095L20.472 49.456C20.472 49.456 15.31 63.582 11.479 75.424C11.779 75.87 12.111 76.301 12.505 76.695C15.197 79.387 19.256 79.874 22.446 78.163C22.091 81.766 24.101 85.326 27.62 86.777C31.094 88.209 34.971 87.147 37.271 84.422C37.93 86.479 39.364 88.181 41.221 89.213C42.554 84.878 43.991 79.814 45.296 75.059C46.603 79.817 48.04 84.885 49.374 89.222C51.273 88.168 52.724 86.405 53.363 84.287C55.66 87.085 59.598 88.182 63.113 86.719C66.582 85.275 68.573 81.783 68.272 78.229C71.443 79.861 75.431 79.352 78.087 76.695C78.481 76.301 78.814 75.871 79.113 75.425C75.285 63.583 70.122 49.456 70.122 49.456Z" fill="#C01830"/>
<path d="M70.123 49.456L45.298 57.095L20.473 49.456C20.473 49.456 5.665 89.974 7.599 91.293C9.533 92.612 24.204 86.989 24.204 86.989C24.204 86.989 34.483 100.652 36.824 100.286C38.152 100.079 42.116 86.646 45.297 75.058C48.479 86.646 52.442 100.079 53.77 100.286C56.112 100.652 66.39 86.989 66.39 86.989C66.39 86.989 81.061 92.613 82.995 91.293C84.931 89.974 70.123 49.456 70.123 49.456Z" stroke="#650032" stroke-width="1.0233" stroke-miterlimit="10"/>
<path d="M87.832 43.903C87.832 40.411 85.516 37.463 82.337 36.504C84.904 34.397 85.909 30.785 84.568 27.561C83.244 24.379 80.04 22.553 76.781 22.829C78.278 19.921 77.811 16.263 75.374 13.826C72.905 11.357 69.182 10.91 66.256 12.48C66.581 9.17501 64.738 5.91001 61.51 4.57901C58.324 3.26501 54.768 4.24001 52.658 6.73901C51.66 3.62401 48.743 1.36801 45.297 1.36801C41.805 1.36801 38.857 3.68401 37.898 6.86301C35.791 4.29601 32.179 3.29099 28.955 4.63199C25.773 5.95599 23.947 9.16001 24.223 12.419C21.315 10.922 17.657 11.389 15.22 13.826C12.751 16.295 12.304 20.018 13.874 22.944C10.569 22.619 7.30399 24.462 5.97299 27.69C4.65899 30.876 5.63399 34.432 8.13299 36.542C5.01799 37.54 2.76199 40.457 2.76199 43.903C2.76199 47.395 5.07799 50.343 8.25699 51.302C5.68999 53.409 4.68499 57.021 6.02599 60.245C7.34999 63.427 10.554 65.253 13.813 64.977C12.316 67.885 12.783 71.543 15.22 73.98C17.689 76.449 21.412 76.896 24.338 75.326C24.013 78.631 25.856 81.896 29.084 83.227C32.27 84.541 35.826 83.567 37.936 81.067C38.934 84.182 41.851 86.438 45.297 86.438C48.789 86.438 51.737 84.122 52.696 80.943C54.803 83.51 58.415 84.515 61.639 83.174C64.821 81.85 66.647 78.646 66.371 75.387C69.279 76.884 72.937 76.417 75.374 73.98C77.843 71.511 78.29 67.788 76.72 64.862C80.025 65.187 83.29 63.344 84.621 60.116C85.935 56.93 84.961 53.374 82.461 51.264C85.576 50.266 87.832 47.349 87.832 43.903Z" fill="#FFCD00"/>
<path d="M76.823 19.01C75.663 20.639 74.749 18.053 72.204 16.241C69.66 14.429 66.449 14.076 67.609 12.447C68.769 10.818 71.773 10.967 74.317 12.779C76.862 14.592 77.984 17.381 76.823 19.01Z" fill="#FFFF92"/>
<path d="M84.258 32.113C82.76 33.438 82.453 30.712 80.384 28.372C78.315 26.032 75.267 24.963 76.765 23.638C78.263 22.313 81.155 23.137 83.224 25.477C85.294 27.817 85.756 30.788 84.258 32.113Z" fill="#FFFF92"/>
<path d="M86.464 47.006C84.741 48.021 84.959 45.287 83.373 42.596C81.787 39.905 78.998 38.276 80.721 37.26C82.444 36.244 85.127 37.603 86.713 40.294C88.298 42.986 88.187 45.99 86.464 47.006Z" fill="#FFFF92"/>
<path d="M65.331 10.481C64.447 12.275 63.13 9.869 60.328 8.489C57.526 7.109 54.3 7.27599 55.184 5.48199C56.068 3.68799 59.056 3.35299 61.858 4.73299C64.66 6.11299 66.215 8.68698 65.331 10.481Z" fill="#FFFF92"/>
<path d="M50.954 5.19901C50.946 7.19901 48.708 5.614 45.584 5.602C42.46 5.59 39.634 7.155 39.642 5.155C39.65 3.155 42.189 1.54401 45.312 1.55601C48.436 1.56801 50.961 3.19901 50.954 5.19901Z" fill="#FFFF92"/>
<path d="M36.363 6.31201C36.835 8.25501 34.282 7.254 31.246 7.992C28.211 8.73 25.843 10.927 25.37 8.984C24.898 7.041 26.975 4.86699 30.011 4.12899C33.047 3.39099 35.891 4.36801 36.363 6.31201Z" fill="#FFFF92"/>
<path d="M87.832 43.903C87.832 40.411 85.516 37.463 82.337 36.504C84.904 34.397 85.909 30.785 84.568 27.561C83.244 24.379 80.04 22.553 76.781 22.829C78.278 19.921 77.811 16.263 75.374 13.826C72.905 11.357 69.182 10.91 66.256 12.48C66.581 9.17501 64.738 5.91001 61.51 4.57901C58.324 3.26501 54.768 4.24001 52.658 6.73901C51.66 3.62401 48.743 1.36801 45.297 1.36801C41.805 1.36801 38.857 3.68401 37.898 6.86301C35.791 4.29601 32.179 3.29099 28.955 4.63199C25.773 5.95599 23.947 9.16001 24.223 12.419C21.315 10.922 17.657 11.389 15.22 13.826C12.751 16.295 12.304 20.018 13.874 22.944C10.569 22.619 7.30399 24.462 5.97299 27.69C4.65899 30.876 5.63399 34.432 8.13299 36.542C5.01799 37.54 2.76199 40.457 2.76199 43.903C2.76199 47.395 5.07799 50.343 8.25699 51.302C5.68999 53.409 4.68499 57.021 6.02599 60.245C7.34999 63.427 10.554 65.253 13.813 64.977C12.316 67.885 12.783 71.543 15.22 73.98C17.689 76.449 21.412 76.896 24.338 75.326C24.013 78.631 25.856 81.896 29.084 83.227C32.27 84.541 35.826 83.567 37.936 81.067C38.934 84.182 41.851 86.438 45.297 86.438C48.789 86.438 51.737 84.122 52.696 80.943C54.803 83.51 58.415 84.515 61.639 83.174C64.821 81.85 66.647 78.646 66.371 75.387C69.279 76.884 72.937 76.417 75.374 73.98C77.843 71.511 78.29 67.788 76.72 64.862C80.025 65.187 83.29 63.344 84.621 60.116C85.935 56.93 84.961 53.374 82.461 51.264C85.576 50.266 87.832 47.349 87.832 43.903Z" stroke="#DA7300" stroke-width="1.0233" stroke-miterlimit="10"/>
<path d="M45.298 73.616C61.708 73.616 75.011 60.313 75.011 43.903C75.011 27.493 61.708 14.19 45.298 14.19C28.888 14.19 15.585 27.493 15.585 43.903C15.585 60.313 28.888 73.616 45.298 73.616Z" fill="#FFE75F"/>
<path d="M45.298 72.075C60.857 72.075 73.47 59.462 73.47 43.903C73.47 28.344 60.857 15.731 45.298 15.731C29.739 15.731 17.126 28.344 17.126 43.903C17.126 59.462 29.739 72.075 45.298 72.075Z" fill="#FF9000"/>
<path d="M45.298 69.787C59.5933 69.787 71.182 58.1984 71.182 43.903C71.182 29.6077 59.5933 18.019 45.298 18.019C31.0027 18.019 19.414 29.6077 19.414 43.903C19.414 58.1984 31.0027 69.787 45.298 69.787Z" fill="#FFAF00"/>
<path d="M35.7967 33.3899V52.9977H33.4223V35.8791H33.3074L28.5203 39.0578V36.6451L33.4223 33.3899H35.7967ZM45.1883 42.9509V44.2591H39.9818V42.9509H45.1883ZM41.4992 40.5438H43.0429V50.1197C43.0429 50.5558 43.1061 50.8828 43.2326 51.1008C43.3634 51.3145 43.5291 51.4584 43.7297 51.5325C43.9346 51.6023 44.1505 51.6372 44.3772 51.6372C44.5473 51.6372 44.6869 51.6285 44.7959 51.611C44.9049 51.5892 44.9921 51.5718 45.0575 51.5587L45.3715 52.9454C45.2668 52.9846 45.1207 53.0239 44.9332 53.0631C44.7457 53.1067 44.5081 53.1285 44.2203 53.1285C43.7842 53.1285 43.3569 53.0348 42.9382 52.8473C42.524 52.6598 42.1795 52.3741 41.9048 51.9904C41.6344 51.6067 41.4992 51.1227 41.4992 50.5383V40.5438ZM49.2698 46.9539V52.9977H47.7262V39.6019H49.2698V44.5207H49.4007C49.6361 44.0018 49.9893 43.5897 50.4603 43.2845C50.9356 42.9749 51.5679 42.8201 52.3572 42.8201C53.0418 42.8201 53.6414 42.9574 54.1559 43.2321C54.6705 43.5025 55.0695 43.9189 55.3529 44.4814C55.6407 45.0396 55.7846 45.7504 55.7846 46.6138V52.9977H54.2409V46.7184C54.2409 45.9204 54.0338 45.3034 53.6196 44.8674C53.2097 44.4269 52.6406 44.2067 51.9124 44.2067C51.4065 44.2067 50.953 44.3136 50.5519 44.5272C50.1551 44.7409 49.8411 45.0527 49.61 45.4626C49.3832 45.8725 49.2698 46.3696 49.2698 46.9539Z" fill="#DA5200"/>
<path d="M45.298 72.075C60.857 72.075 73.47 59.462 73.47 43.903C73.47 28.344 60.857 15.731 45.298 15.731C29.739 15.731 17.126 28.344 17.126 43.903C17.126 59.462 29.739 72.075 45.298 72.075Z" stroke="#DA7300" stroke-width="1.0233" stroke-miterlimit="10"/>
</svg>
