<svg width="77" height="103" viewBox="0 0 77 103" fill="none" xmlns="http://www.w3.org/2000/svg">
<path opacity="0.2" d="M13.479 70.923C13.124 86.638 13.216 101.639 14.838 102.141C18.279 103.206 37.304 88.3 37.304 88.3C37.304 88.3 58.597 103.738 61.875 102.141C63.344 101.425 63.496 87.83 63.217 73.043C63.219 73.041 63.222 73.039 63.224 73.037C63.202 71.866 63.177 70.687 63.15 69.507C69.986 62.843 74.237 53.539 74.237 43.238C74.237 39.158 73.561 35.239 72.332 31.573C72.331 31.571 72.33 31.568 72.329 31.566C72.135 30.989 71.928 30.418 71.707 29.854C71.705 29.848 71.703 29.843 71.7 29.837C71.48 29.276 71.246 28.722 71 28.175C70.996 28.167 70.992 28.158 70.989 28.15C70.743 27.605 70.484 27.067 70.212 26.537C70.208 26.529 70.204 26.52 70.199 26.512C69.927 25.982 69.642 25.459 69.345 24.944C69.341 24.936 69.336 24.929 69.332 24.921C69.034 24.404 68.723 23.896 68.401 23.396C68.398 23.392 68.395 23.387 68.392 23.382C62.899 14.866 53.982 8.77199 43.583 7.04999C43.082 6.82999 42.489 6.65699 41.833 6.56699C41.046 6.45899 40.312 6.48799 39.704 6.61499C38.988 6.57299 38.269 6.547 37.543 6.547C17.278 6.547 0.850006 22.975 0.850006 43.24C0.852006 54.292 5.746 64.196 13.479 70.923Z" fill="black"/>
<path d="M64.026 96.596C60.748 98.193 39.455 82.755 39.455 82.755C39.455 82.755 20.429 97.66 16.989 96.596C13.549 95.532 16.989 29.26 16.989 29.26H64.026C64.026 29.26 67.303 94.999 64.026 96.596Z" fill="#FF2B42"/>
<path d="M15.567 68.752C22.232 73.938 30.603 77.036 39.702 77.036C49.516 77.036 58.483 73.434 65.375 67.492C65.031 49.28 64.033 29.26 64.033 29.26H16.996C16.996 29.26 15.907 50.218 15.567 68.752Z" fill="#C72B42"/>
<path d="M64.026 96.596C60.748 98.193 39.455 82.755 39.455 82.755C39.455 82.755 20.429 97.66 16.989 96.596C13.549 95.532 16.989 29.26 16.989 29.26H64.026C64.026 29.26 67.303 94.999 64.026 96.596Z" stroke="#650032" stroke-width="1.0233" stroke-miterlimit="10"/>
<path d="M39.695 74.385C59.96 74.385 76.388 57.957 76.388 37.692C76.388 17.427 59.96 0.998993 39.695 0.998993C19.43 0.998993 3.00201 17.427 3.00201 37.692C3.00201 57.957 19.43 74.385 39.695 74.385Z" fill="#FFCD00"/>
<path d="M39.695 69.009C56.9909 69.009 71.012 54.9879 71.012 37.692C71.012 20.3961 56.9909 6.375 39.695 6.375C22.3991 6.375 8.37799 20.3961 8.37799 37.692C8.37799 54.9879 22.3991 69.009 39.695 69.009Z" fill="#FFE75F"/>
<path d="M47.1958 3.05953C47.3173 2.17698 45.8775 1.24989 43.98 0.988835C42.0825 0.727776 40.4458 1.2316 40.3243 2.11415C40.2029 2.9967 41.6427 3.92379 43.5403 4.18485C45.4378 4.4459 47.0744 3.94208 47.1958 3.05953Z" fill="#FFFFB7"/>
<path d="M75.478 29.587C74.385 24.74 72.334 20.259 69.532 16.349C68.316 14.902 66.994 13.473 65.605 12.141C63.51 10.133 61.338 8.25301 59.28 6.67001C56.29 4.77801 53.009 3.30799 49.517 2.33999C49.469 2.37699 49.414 2.40499 49.366 2.44299C45.345 5.66799 56.766 8.21199 63.535 14.701C69.958 20.857 70.712 32.52 75.478 29.587Z" fill="#FFFFB7"/>
<path d="M39.695 74.385C59.96 74.385 76.388 57.957 76.388 37.692C76.388 17.427 59.96 0.99899 39.695 0.99899C19.43 0.99899 3.00201 17.427 3.00201 37.692C3.00201 57.957 19.43 74.385 39.695 74.385Z" stroke="#DA7300" stroke-width="1.0233" stroke-miterlimit="10"/>
<path d="M39.695 67.052C55.9101 67.052 69.055 53.9071 69.055 37.692C69.055 21.4769 55.9101 8.332 39.695 8.332C23.4799 8.332 10.335 21.4769 10.335 37.692C10.335 53.9071 23.4799 67.052 39.695 67.052Z" fill="#FFFFB7"/>
<path d="M37.3821 11.6001C39.2975 11.5978 40.8493 10.8737 40.8482 9.98288C40.8471 9.09205 39.2936 8.37174 37.3783 8.37404C35.4629 8.37634 33.9111 9.10037 33.9122 9.99121C33.9133 10.882 35.4668 11.6024 37.3821 11.6001Z" fill="#FFFFDE"/>
<path d="M69.055 35.647C69.055 37.692 67.015 37.249 66.473 36.76C64.432 34.92 62.954 25.527 57.605 20.401C50.835 13.913 38.417 12.833 43.65 8.18301C43.65 8.18301 53.699 10.788 60.469 17.276C67.239 23.765 69.055 35.058 69.055 35.647Z" fill="#FFFFDE"/>
<path opacity="0.3" d="M39.695 8.332C23.48 8.332 10.335 21.477 10.335 37.692C10.335 53.907 23.48 67.052 39.695 67.052C55.91 67.052 69.055 53.907 69.055 37.692C69.055 21.477 55.91 8.332 39.695 8.332ZM39.695 65.683C24.236 65.683 11.704 53.151 11.704 37.692C11.704 22.233 24.236 9.70098 39.695 9.70098C55.154 9.70098 67.686 22.233 67.686 37.692C67.686 53.151 55.154 65.683 39.695 65.683Z" fill="#FFCD00"/>
<path d="M39.695 67.052C55.9101 67.052 69.055 53.9071 69.055 37.692C69.055 21.4769 55.9101 8.332 39.695 8.332C23.4799 8.332 10.335 21.4769 10.335 37.692C10.335 53.9071 23.4799 67.052 39.695 67.052Z" stroke="#DA7300" stroke-width="1.0233" stroke-miterlimit="10"/>
<path d="M18.874 32.487C18.943 32.135 19.118 31.838 19.349 31.706C22.025 30.182 26.31 28.687 30.998 27.424C33.825 23.49 36.774 20.135 39.184 18.144C39.39 17.974 39.733 17.879 40.108 17.881C40.478 17.884 40.824 17.983 41.025 18.156C43.333 20.138 46.142 23.435 48.845 27.307C53.633 28.665 58.028 30.271 60.743 31.886C60.97 32.022 61.142 32.318 61.206 32.668C61.271 33.018 61.227 33.375 61.091 33.621C59.513 36.463 57.361 39.957 54.506 43.697C54.62 48.382 54.515 52.806 54.21 56.475C54.185 56.785 53.975 57.094 53.653 57.293C53.33 57.493 52.939 57.558 52.618 57.475C48.841 56.497 44.577 55.402 39.949 53.903C35.31 55.363 31.036 56.421 27.25 57.367C27.13 57.397 27.002 57.406 26.871 57.396C26.648 57.378 26.419 57.305 26.219 57.178C25.898 56.977 25.69 56.668 25.667 56.358C25.364 52.625 25.276 48.113 25.415 43.348C22.628 39.665 20.528 36.239 18.984 33.446C18.847 33.2 18.805 32.84 18.874 32.487Z" fill="#FFE75F"/>
<path d="M59.894 31.418C57.159 29.963 53.168 28.534 48.845 27.308C46.141 23.436 43.333 20.139 41.025 18.157C40.824 17.984 40.478 17.885 40.108 17.882C39.733 17.88 39.389 17.975 39.184 18.145C37.798 19.291 36.231 20.898 34.613 22.797C34.642 22.851 36.208 24.208 38.393 21.436C40.61 18.622 46.447 28.836 47.536 29.26C48.625 29.684 61.237 34.161 61.232 33.017C61.229 32.393 59.907 31.43 59.894 31.418Z" fill="#FFFFB7"/>
<path d="M18.874 32.487C18.943 32.135 19.118 31.838 19.349 31.706C22.025 30.182 26.31 28.687 30.998 27.424C33.825 23.49 36.774 20.135 39.184 18.144C39.39 17.974 39.733 17.879 40.108 17.881C40.478 17.884 40.824 17.983 41.025 18.156C43.333 20.138 46.142 23.435 48.845 27.307C53.633 28.665 58.028 30.271 60.743 31.886C60.97 32.022 61.142 32.318 61.206 32.668C61.271 33.018 61.227 33.375 61.091 33.621C59.513 36.463 57.361 39.957 54.506 43.697C54.62 48.382 54.515 52.806 54.21 56.475C54.185 56.785 53.975 57.094 53.653 57.293C53.33 57.493 52.939 57.558 52.618 57.475C48.841 56.497 44.577 55.402 39.949 53.903C35.31 55.363 31.036 56.421 27.25 57.367C27.13 57.397 27.002 57.406 26.871 57.396C26.648 57.378 26.419 57.305 26.219 57.178C25.898 56.977 25.69 56.668 25.667 56.358C25.364 52.625 25.276 48.113 25.415 43.348C22.628 39.665 20.528 36.239 18.984 33.446C18.847 33.2 18.805 32.84 18.874 32.487Z" stroke="#DA7300" stroke-width="1.0233" stroke-miterlimit="10"/>
</svg>
