<svg width="89" height="106" viewBox="0 0 89 106" fill="none" xmlns="http://www.w3.org/2000/svg">
<path opacity="0.2" d="M80.186 41.33C82.15 39.718 83.189 37.224 82.973 34.697C82.967 33.77 82.654 32.729 82.069 31.712C81.305 30.287 80.151 29.191 78.787 28.496C78.646 28.422 78.507 28.349 78.366 28.287C78.183 28.207 77.995 28.141 77.806 28.076C77.719 28.048 77.633 28.017 77.546 27.994C76.611 27.706 75.627 27.572 74.63 27.656C75.599 25.775 75.732 23.583 75.054 21.608C74.779 20.239 73.749 18.734 72.166 17.606C70.146 16.167 67.852 15.796 66.405 16.511C65.61 16.652 64.833 16.917 64.105 17.307C64.311 15.21 63.639 13.133 62.3 11.552C62.098 11.311 61.87 11.078 61.621 10.853C61.417 10.667 61.193 10.502 60.968 10.336C60.863 10.259 60.767 10.178 60.656 10.105C60.479 9.989 60.29 9.889 60.102 9.786C59.968 9.711 59.847 9.627 59.707 9.558C59.622 9.516 59.536 9.49 59.451 9.452C59.419 9.438 59.392 9.419 59.36 9.405C59.329 9.392 59.297 9.387 59.266 9.375C57.418 8.586 55.557 8.527 54.299 9.133C52.84 9.551 51.508 10.379 50.507 11.565C49.509 8.45 46.592 6.194 43.146 6.194C39.654 6.194 36.706 8.51 35.747 11.689C35.044 10.832 34.163 10.168 33.195 9.688C32.007 8.775 29.99 8.435 27.86 8.953C25.546 9.515 23.792 10.913 23.297 12.406C22.381 13.827 21.927 15.524 22.072 17.245C19.164 15.748 15.506 16.215 13.069 18.652C10.6 21.121 10.153 24.844 11.723 27.77C8.41799 27.445 5.15299 29.288 3.82199 32.516C2.50799 35.702 3.48299 39.258 5.98199 41.368C2.86699 42.366 0.610992 45.283 0.610992 48.729C0.610992 52.221 2.92699 55.169 6.10599 56.128C3.53899 58.235 2.53399 61.847 3.87499 65.071C5.19899 68.253 8.40299 70.079 11.662 69.803C10.816 71.446 10.62 73.324 11.029 75.09C10.961 75.294 10.892 75.497 10.824 75.701C10.796 75.784 10.769 75.866 10.741 75.949C10.65 76.222 10.559 76.494 10.469 76.766C10.431 76.879 10.394 76.992 10.357 77.106C10.275 77.353 10.193 77.601 10.112 77.847C10.073 77.967 10.033 78.086 9.994 78.205C9.917 78.44 9.83999 78.675 9.76299 78.908C9.72199 79.034 9.68099 79.159 9.63999 79.285C9.56199 79.524 9.48499 79.761 9.40799 79.998C9.38099 80.081 9.35299 80.166 9.32599 80.249C6.66899 88.462 4.65299 95.578 5.44499 96.118C7.37899 97.437 22.05 91.814 22.05 91.814C22.05 91.814 32.329 105.477 34.67 105.111C35.521 104.978 37.454 99.414 39.57 92.387C39.572 92.382 39.573 92.376 39.575 92.371C39.749 91.794 39.924 91.208 40.099 90.613C41.036 91.017 42.058 91.262 43.143 91.262C44.229 91.262 45.25 91.016 46.187 90.612C46.199 90.653 46.211 90.694 46.223 90.735C46.372 91.237 46.519 91.732 46.667 92.222C46.699 92.329 46.731 92.435 46.763 92.541C46.912 93.036 47.06 93.524 47.207 94.002C47.211 94.016 47.216 94.031 47.22 94.046C49.134 100.271 50.832 104.989 51.615 105.111C53.957 105.477 64.235 91.814 64.235 91.814C64.235 91.814 78.906 97.438 80.84 96.118C81.795 95.467 78.668 85.257 75.257 75.088C75.675 73.281 75.46 71.356 74.564 69.686C77.869 70.011 81.134 68.168 82.465 64.94C83.779 61.754 82.805 58.198 80.305 56.088C83.127 55.184 85.225 52.7 85.599 49.68C85.639 49.428 85.663 49.167 85.663 48.893C85.664 48.837 85.676 48.784 85.676 48.728C85.682 45.237 83.365 42.289 80.186 41.33Z" fill="black"/>
<path d="M70.123 48.737L45.298 56.376L20.473 48.737C20.473 48.737 5.665 89.255 7.599 90.574C9.533 91.893 24.204 86.27 24.204 86.27C24.204 86.27 34.483 99.933 36.824 99.567C38.152 99.36 42.116 85.927 45.297 74.339C48.479 85.927 52.442 99.36 53.77 99.567C56.112 99.933 66.39 86.27 66.39 86.27C66.39 86.27 81.061 91.894 82.995 90.574C84.93 89.255 70.123 48.737 70.123 48.737Z" fill="#4150E8"/>
<path d="M70.122 48.737L45.297 56.376L20.472 48.737C20.472 48.737 15.31 62.863 11.479 74.705C11.779 75.151 12.111 75.581 12.505 75.976C15.197 78.668 19.256 79.155 22.446 77.444C22.091 81.047 24.101 84.607 27.62 86.058C31.094 87.49 34.971 86.428 37.271 83.703C37.93 85.76 39.364 87.462 41.221 88.494C42.554 84.159 43.991 79.095 45.296 74.34C46.603 79.098 48.04 84.166 49.374 88.503C51.273 87.449 52.724 85.686 53.363 83.568C55.66 86.366 59.598 87.463 63.113 86C66.582 84.556 68.573 81.064 68.272 77.51C71.443 79.142 75.431 78.633 78.087 75.976C78.481 75.582 78.813 75.152 79.113 74.706C75.285 62.864 70.122 48.737 70.122 48.737Z" fill="#1B3AB9"/>
<path d="M70.123 48.737L45.298 56.376L20.473 48.737C20.473 48.737 5.665 89.255 7.599 90.574C9.533 91.893 24.204 86.27 24.204 86.27C24.204 86.27 34.483 99.933 36.824 99.567C38.152 99.36 42.116 85.927 45.297 74.339C48.479 85.927 52.442 99.36 53.77 99.567C56.112 99.933 66.39 86.27 66.39 86.27C66.39 86.27 81.061 91.894 82.995 90.574C84.93 89.255 70.123 48.737 70.123 48.737Z" stroke="#291F8B" stroke-width="1.0233" stroke-miterlimit="10"/>
<path d="M87.832 43.184C87.832 39.692 85.516 36.744 82.337 35.785C84.904 33.678 85.909 30.066 84.568 26.842C83.244 23.66 80.04 21.834 76.781 22.11C78.278 19.202 77.811 15.544 75.374 13.107C72.905 10.638 69.182 10.191 66.256 11.761C66.581 8.456 64.738 5.191 61.51 3.86C58.324 2.546 54.768 3.521 52.658 6.02C51.66 2.905 48.743 0.649002 45.297 0.649002C41.805 0.649002 38.857 2.965 37.898 6.144C35.791 3.577 32.179 2.57199 28.955 3.91299C25.773 5.23699 23.947 8.441 24.223 11.7C21.315 10.203 17.657 10.67 15.22 13.107C12.751 15.576 12.304 19.299 13.874 22.225C10.569 21.9 7.30399 23.743 5.97299 26.971C4.65899 30.157 5.63399 33.713 8.13299 35.823C5.01799 36.821 2.76199 39.738 2.76199 43.184C2.76199 46.676 5.07799 49.624 8.25699 50.583C5.68999 52.69 4.68499 56.302 6.02599 59.526C7.34999 62.708 10.554 64.534 13.813 64.258C12.316 67.166 12.783 70.824 15.22 73.261C17.689 75.73 21.412 76.177 24.338 74.607C24.013 77.912 25.856 81.177 29.084 82.508C32.27 83.822 35.826 82.848 37.936 80.348C38.934 83.463 41.851 85.719 45.297 85.719C48.789 85.719 51.737 83.403 52.696 80.224C54.803 82.791 58.415 83.796 61.639 82.455C64.821 81.131 66.647 77.927 66.371 74.668C69.279 76.165 72.937 75.698 75.374 73.261C77.843 70.792 78.29 67.069 76.72 64.143C80.025 64.468 83.29 62.625 84.621 59.397C85.935 56.211 84.961 52.655 82.461 50.545C85.576 49.547 87.832 46.63 87.832 43.184Z" fill="#FF2B42"/>
<path d="M76.823 18.291C75.663 19.92 74.749 17.334 72.204 15.522C69.66 13.71 66.449 13.357 67.609 11.728C68.769 10.099 71.773 10.248 74.317 12.06C76.862 13.872 77.983 16.662 76.823 18.291Z" fill="#FF5C74"/>
<path d="M84.258 31.394C82.76 32.719 82.453 29.993 80.384 27.653C78.315 25.313 75.267 24.244 76.765 22.919C78.263 21.594 81.155 22.418 83.224 24.758C85.294 27.098 85.756 30.069 84.258 31.394Z" fill="#FF5C74"/>
<path d="M86.464 46.286C84.741 47.302 84.959 44.567 83.373 41.876C81.787 39.185 78.998 37.556 80.721 36.54C82.444 35.525 85.127 36.883 86.713 39.574C88.298 42.266 88.187 45.271 86.464 46.286Z" fill="#FF5C74"/>
<path d="M65.331 9.762C64.447 11.556 63.13 9.15001 60.328 7.77001C57.526 6.39001 54.3 6.55701 55.184 4.76301C56.068 2.96901 59.056 2.63401 61.858 4.01401C64.66 5.39401 66.215 7.968 65.331 9.762Z" fill="#FF5C74"/>
<path d="M50.954 4.48C50.946 6.48 48.708 4.895 45.584 4.883C42.46 4.871 39.634 6.43601 39.642 4.43601C39.65 2.43601 42.189 0.825011 45.312 0.837011C48.436 0.848011 50.961 2.48 50.954 4.48Z" fill="#FF5C74"/>
<path d="M36.363 5.592C36.835 7.535 34.282 6.534 31.246 7.272C28.211 8.01 25.843 10.207 25.37 8.26401C24.898 6.32101 26.975 4.147 30.011 3.409C33.047 2.671 35.891 3.649 36.363 5.592Z" fill="#FF5C74"/>
<path d="M87.832 43.184C87.832 39.692 85.516 36.744 82.337 35.785C84.904 33.678 85.909 30.066 84.568 26.842C83.244 23.66 80.04 21.834 76.781 22.11C78.278 19.202 77.811 15.544 75.374 13.107C72.905 10.638 69.182 10.191 66.256 11.761C66.581 8.456 64.738 5.191 61.51 3.86C58.324 2.546 54.768 3.521 52.658 6.02C51.66 2.905 48.743 0.649002 45.297 0.649002C41.805 0.649002 38.857 2.965 37.898 6.144C35.791 3.577 32.179 2.57199 28.955 3.91299C25.773 5.23699 23.947 8.441 24.223 11.7C21.315 10.203 17.657 10.67 15.22 13.107C12.751 15.576 12.304 19.299 13.874 22.225C10.569 21.9 7.30399 23.743 5.97299 26.971C4.65899 30.157 5.63399 33.713 8.13299 35.823C5.01799 36.821 2.76199 39.738 2.76199 43.184C2.76199 46.676 5.07799 49.624 8.25699 50.583C5.68999 52.69 4.68499 56.302 6.02599 59.526C7.34999 62.708 10.554 64.534 13.813 64.258C12.316 67.166 12.783 70.824 15.22 73.261C17.689 75.73 21.412 76.177 24.338 74.607C24.013 77.912 25.856 81.177 29.084 82.508C32.27 83.822 35.826 82.848 37.936 80.348C38.934 83.463 41.851 85.719 45.297 85.719C48.789 85.719 51.737 83.403 52.696 80.224C54.803 82.791 58.415 83.796 61.639 82.455C64.821 81.131 66.647 77.927 66.371 74.668C69.279 76.165 72.937 75.698 75.374 73.261C77.843 70.792 78.29 67.069 76.72 64.143C80.025 64.468 83.29 62.625 84.621 59.397C85.935 56.211 84.961 52.655 82.461 50.545C85.576 49.547 87.832 46.63 87.832 43.184Z" stroke="#650032" stroke-width="1.0233" stroke-miterlimit="10"/>
<path d="M45.298 72.746C61.6246 72.746 74.86 59.5106 74.86 43.184C74.86 26.8573 61.6246 13.622 45.298 13.622C28.9713 13.622 15.736 26.8573 15.736 43.184C15.736 59.5106 28.9713 72.746 45.298 72.746Z" fill="#FF5C74"/>
<path d="M45.298 71.356C60.857 71.356 73.47 58.743 73.47 43.184C73.47 27.625 60.857 15.012 45.298 15.012C29.739 15.012 17.126 27.625 17.126 43.184C17.126 58.743 29.739 71.356 45.298 71.356Z" fill="#941830"/>
<path d="M45.298 69.068C59.5933 69.068 71.182 57.4793 71.182 43.184C71.182 28.8887 59.5933 17.3 45.298 17.3C31.0027 17.3 19.414 28.8887 19.414 43.184C19.414 57.4793 31.0027 69.068 45.298 69.068Z" fill="#C01830"/>
<path d="M26.8789 52.279V50.5557L33.351 43.4708C34.1106 42.641 34.7361 41.9198 35.2276 41.307C35.719 40.6879 36.0828 40.1071 36.319 39.5645C36.5616 39.0156 36.6828 38.4412 36.6828 37.8412C36.6828 37.1519 36.5169 36.5551 36.185 36.0508C35.8595 35.5466 35.4127 35.1572 34.8446 34.8828C34.2765 34.6083 33.6382 34.4711 32.9298 34.4711C32.1766 34.4711 31.5192 34.6275 30.9575 34.9402C30.4022 35.2466 29.9714 35.6774 29.665 36.2327C29.365 36.788 29.215 37.4391 29.215 38.1859H26.9555C26.9555 37.037 27.2204 36.0285 27.7501 35.1604C28.2799 34.2924 29.0012 33.6158 29.9139 33.1307C30.833 32.6456 31.8638 32.4031 33.0064 32.4031C34.1553 32.4031 35.1733 32.6456 36.0605 33.1307C36.9477 33.6158 37.6434 34.27 38.1477 35.0934C38.6519 35.9168 38.904 36.8327 38.904 37.8412C38.904 38.5624 38.7732 39.2677 38.5115 39.9571C38.2562 40.64 37.8094 41.4028 37.1711 42.2453C36.5392 43.0814 35.6616 44.1027 34.5382 45.309L30.1341 50.0195V50.1727H39.2487V52.279H26.8789ZM44.1296 46.2352V52.279H42.5859V42.2322H44.0773V43.802H44.2081C44.4436 43.2918 44.8011 42.8819 45.2808 42.5723C45.7605 42.2583 46.3797 42.1014 47.1384 42.1014C47.8187 42.1014 48.4139 42.2409 48.9241 42.52C49.4343 42.7947 49.8311 43.2133 50.1145 43.7758C50.398 44.334 50.5397 45.0404 50.5397 45.8951V52.279H48.996V45.9997C48.996 45.2105 48.7911 44.5956 48.3812 44.1552C47.9713 43.7104 47.4088 43.488 46.6936 43.488C46.2009 43.488 45.7605 43.5949 45.3724 43.8085C44.9886 44.0222 44.6856 44.334 44.4632 44.7439C44.2408 45.1538 44.1296 45.6509 44.1296 46.2352ZM57.1542 52.4883C56.3169 52.4883 55.5778 52.2768 54.9368 51.8538C54.2958 51.4265 53.7943 50.8247 53.4324 50.0486C53.0705 49.268 52.8895 48.3457 52.8895 47.2818C52.8895 46.2265 53.0705 45.3108 53.4324 44.5346C53.7943 43.7584 54.298 43.1588 54.9434 42.7358C55.5887 42.3128 56.3344 42.1014 57.1803 42.1014C57.8344 42.1014 58.3512 42.2104 58.7305 42.4284C59.1143 42.6421 59.4064 42.8863 59.607 43.161C59.812 43.4313 59.9711 43.6537 60.0845 43.8282H60.2153V38.8832H61.759V52.279H60.2677V50.7354H60.0845C59.9711 50.9185 59.8098 51.1496 59.6005 51.4287C59.3912 51.7034 59.0925 51.9498 58.7044 52.1678C58.3163 52.3815 57.7996 52.4883 57.1542 52.4883ZM57.3635 51.1016C57.9827 51.1016 58.506 50.9403 58.9333 50.6176C59.3606 50.2906 59.6855 49.8392 59.9079 49.2636C60.1303 48.6837 60.2415 48.0143 60.2415 47.2556C60.2415 46.5056 60.1325 45.8493 59.9144 45.2868C59.6964 44.7199 59.3737 44.2795 58.9464 43.9655C58.5191 43.6472 57.9914 43.488 57.3635 43.488C56.7094 43.488 56.1643 43.6559 55.7283 43.9917C55.2966 44.3231 54.9717 44.7744 54.7537 45.3456C54.54 45.9125 54.4332 46.5492 54.4332 47.2556C54.4332 47.9707 54.5422 48.6205 54.7602 49.2048C54.9826 49.7847 55.3096 50.247 55.7413 50.5915C56.1774 50.9316 56.7181 51.1016 57.3635 51.1016Z" fill="#FF4863"/>
<path d="M45.298 71.356C60.857 71.356 73.47 58.743 73.47 43.184C73.47 27.625 60.857 15.012 45.298 15.012C29.739 15.012 17.126 27.625 17.126 43.184C17.126 58.743 29.739 71.356 45.298 71.356Z" stroke="#650032" stroke-width="1.0233" stroke-miterlimit="10"/>
</svg>
