<svg width="77" height="103" viewBox="0 0 77 103" fill="none" xmlns="http://www.w3.org/2000/svg">
<path opacity="0.2" d="M13.479 71.204C13.123 86.918 13.216 101.92 14.838 102.422C18.279 103.487 37.304 88.581 37.304 88.581C37.304 88.581 58.597 104.019 61.875 102.422C63.344 101.706 63.496 88.111 63.217 73.324C63.219 73.322 63.222 73.32 63.224 73.318C63.202 72.147 63.177 70.968 63.15 69.788C69.986 63.124 74.237 53.82 74.237 43.519C74.237 40.733 73.916 38.023 73.328 35.414V35.413C73.191 34.808 73.04 34.208 72.874 33.615C72.874 33.615 72.874 33.613 72.873 33.612C72.707 33.02 72.527 32.435 72.333 31.855C72.332 31.851 72.33 31.847 72.329 31.843C72.136 31.267 71.929 30.698 71.708 30.135C71.705 30.128 71.702 30.121 71.7 30.114C71.48 29.555 71.248 29.002 71.002 28.457C70.998 28.447 70.993 28.438 70.989 28.428C70.743 27.884 70.485 27.348 70.214 26.819C70.209 26.809 70.204 26.8 70.199 26.79C69.927 26.261 69.644 25.74 69.348 25.226C69.343 25.217 69.338 25.208 69.333 25.199C69.035 24.684 68.726 24.176 68.404 23.677C68.4 23.671 68.397 23.666 68.393 23.66C68.068 23.157 67.732 22.662 67.383 22.176C61.839 14.44 53.368 8.95 43.585 7.329C43.084 7.109 42.491 6.93599 41.835 6.84599C41.048 6.73799 40.314 6.767 39.706 6.894C38.991 6.852 38.271 6.826 37.545 6.826C17.28 6.826 0.85199 23.254 0.85199 43.519C0.85199 54.572 5.746 64.477 13.479 71.204Z" fill="black"/>
<path d="M64.026 96.876C60.748 98.473 39.455 83.035 39.455 83.035C39.455 83.035 20.429 97.94 16.989 96.876C13.549 95.812 16.989 29.54 16.989 29.54H64.026C64.026 29.54 67.303 95.279 64.026 96.876Z" fill="#FF2B42"/>
<path d="M15.567 69.033C22.232 74.219 30.603 77.317 39.702 77.317C49.516 77.317 58.483 73.715 65.375 67.773C65.031 49.561 64.033 29.541 64.033 29.541H16.996C16.996 29.541 15.907 50.499 15.567 69.033Z" fill="#C72B42"/>
<path d="M64.026 96.876C60.748 98.473 39.455 83.035 39.455 83.035C39.455 83.035 20.429 97.94 16.989 96.876C13.549 95.812 16.989 29.54 16.989 29.54H64.026C64.026 29.54 67.303 95.279 64.026 96.876Z" stroke="#650032" stroke-width="1.0233" stroke-miterlimit="10"/>
<path d="M39.695 74.666C59.96 74.666 76.388 58.238 76.388 37.973C76.388 17.708 59.96 1.28 39.695 1.28C19.43 1.28 3.00201 17.708 3.00201 37.973C3.00201 58.238 19.43 74.666 39.695 74.666Z" fill="#6D95D3" stroke="#4774B5" stroke-width="1.0233" stroke-miterlimit="10"/>
<path d="M39.695 69.29C56.9909 69.29 71.012 55.2689 71.012 37.973C71.012 20.6771 56.9909 6.65601 39.695 6.65601C22.3991 6.65601 8.37799 20.6771 8.37799 37.973C8.37799 55.2689 22.3991 69.29 39.695 69.29Z" fill="#89B0E8"/>
<path d="M47.1905 3.34539C47.312 2.46284 45.8721 1.53575 43.9746 1.27469C42.0771 1.01364 40.4405 1.51746 40.319 2.40001C40.1976 3.28256 41.6374 4.20965 43.5349 4.47071C45.4324 4.73176 47.0691 4.22794 47.1905 3.34539Z" fill="#C1DCF7"/>
<path d="M75.478 29.868C74.385 25.021 72.334 20.54 69.532 16.63C68.316 15.183 66.994 13.754 65.605 12.422C63.51 10.414 61.338 8.534 59.28 6.951C56.29 5.059 53.009 3.589 49.517 2.621C49.469 2.658 49.414 2.686 49.366 2.724C45.345 5.949 56.766 8.49299 63.535 14.982C69.958 21.138 70.712 32.8 75.478 29.868Z" fill="#C1DCF7"/>
<path d="M39.695 74.666C59.96 74.666 76.388 58.238 76.388 37.973C76.388 17.708 59.96 1.28 39.695 1.28C19.43 1.28 3.00201 17.708 3.00201 37.973C3.00201 58.238 19.43 74.666 39.695 74.666Z" stroke="#4774B5" stroke-width="1.0233" stroke-miterlimit="10"/>
<path d="M39.695 67.333C55.9101 67.333 69.055 54.1881 69.055 37.973C69.055 21.7579 55.9101 8.61301 39.695 8.61301C23.4799 8.61301 10.335 21.7579 10.335 37.973C10.335 54.1881 23.4799 67.333 39.695 67.333Z" fill="#C1DCF7"/>
<path d="M37.3784 11.8799C39.2938 11.8776 40.8456 11.1536 40.8445 10.2628C40.8435 9.37196 39.2899 8.65165 37.3746 8.65395C35.4592 8.65625 33.9075 9.38028 33.9085 10.2711C33.9096 11.162 35.4631 11.8822 37.3784 11.8799Z" fill="#DCFFFF"/>
<path d="M69.055 35.928C69.055 37.973 67.015 37.53 66.473 37.041C64.432 35.201 62.954 25.808 57.605 20.682C50.835 14.194 38.417 13.114 43.65 8.464C43.65 8.464 53.699 11.069 60.469 17.557C67.239 24.046 69.055 35.339 69.055 35.928Z" fill="#DCFFFF"/>
<path opacity="0.3" d="M39.695 8.61301C23.48 8.61301 10.335 21.758 10.335 37.973C10.335 54.188 23.48 67.333 39.695 67.333C55.91 67.333 69.055 54.188 69.055 37.973C69.055 21.758 55.91 8.61301 39.695 8.61301ZM39.695 65.964C24.236 65.964 11.704 53.432 11.704 37.973C11.704 22.514 24.236 9.98199 39.695 9.98199C55.154 9.98199 67.686 22.514 67.686 37.973C67.685 53.432 55.154 65.964 39.695 65.964Z" fill="#6D95D3"/>
<path d="M39.695 67.333C55.9101 67.333 69.055 54.1881 69.055 37.973C69.055 21.7579 55.9101 8.61301 39.695 8.61301C23.4799 8.61301 10.335 21.7579 10.335 37.973C10.335 54.1881 23.4799 67.333 39.695 67.333Z" stroke="#4774B5" stroke-width="1.0233" stroke-miterlimit="10"/>
<path d="M18.874 32.768C18.943 32.416 19.118 32.119 19.349 31.987C22.025 30.463 26.31 28.968 30.998 27.705C33.825 23.771 36.774 20.416 39.184 18.425C39.39 18.255 39.733 18.16 40.108 18.162C40.478 18.165 40.824 18.264 41.025 18.437C43.333 20.419 46.142 23.716 48.845 27.588C53.633 28.946 58.028 30.552 60.743 32.167C60.97 32.303 61.142 32.599 61.206 32.949C61.271 33.299 61.227 33.656 61.091 33.902C59.513 36.744 57.361 40.238 54.506 43.978C54.62 48.663 54.515 53.087 54.21 56.756C54.185 57.066 53.975 57.375 53.653 57.574C53.33 57.774 52.939 57.839 52.618 57.756C48.841 56.778 44.577 55.683 39.949 54.184C35.31 55.644 31.036 56.702 27.25 57.648C27.13 57.678 27.002 57.687 26.871 57.677C26.648 57.659 26.419 57.586 26.219 57.459C25.898 57.258 25.69 56.949 25.667 56.639C25.364 52.906 25.276 48.394 25.415 43.629C22.628 39.946 20.528 36.52 18.984 33.727C18.847 33.48 18.805 33.12 18.874 32.768Z" fill="#89B0E8"/>
<path d="M59.894 31.698C57.159 30.243 53.168 28.814 48.845 27.588C46.141 23.716 43.333 20.419 41.025 18.437C40.824 18.264 40.478 18.165 40.108 18.162C39.733 18.16 39.389 18.255 39.184 18.425C37.798 19.571 36.231 21.178 34.613 23.077C34.642 23.131 36.208 24.488 38.393 21.716C40.61 18.902 46.447 29.116 47.536 29.54C48.625 29.964 61.237 34.441 61.232 33.297C61.229 32.674 59.907 31.711 59.894 31.698Z" fill="#C1DCF7"/>
<path d="M18.874 32.768C18.943 32.416 19.118 32.119 19.349 31.987C22.025 30.463 26.31 28.968 30.998 27.705C33.825 23.771 36.774 20.416 39.184 18.425C39.39 18.255 39.733 18.16 40.108 18.162C40.478 18.165 40.824 18.264 41.025 18.437C43.333 20.419 46.142 23.716 48.845 27.588C53.633 28.946 58.028 30.552 60.743 32.167C60.97 32.303 61.142 32.599 61.206 32.949C61.271 33.299 61.227 33.656 61.091 33.902C59.513 36.744 57.361 40.238 54.506 43.978C54.62 48.663 54.515 53.087 54.21 56.756C54.185 57.066 53.975 57.375 53.653 57.574C53.33 57.774 52.939 57.839 52.618 57.756C48.841 56.778 44.577 55.683 39.949 54.184C35.31 55.644 31.036 56.702 27.25 57.648C27.13 57.678 27.002 57.687 26.871 57.677C26.648 57.659 26.419 57.586 26.219 57.459C25.898 57.258 25.69 56.949 25.667 56.639C25.364 52.906 25.276 48.394 25.415 43.629C22.628 39.946 20.528 36.52 18.984 33.727C18.847 33.48 18.805 33.12 18.874 32.768Z" stroke="#4774B5" stroke-width="1.0233" stroke-miterlimit="10"/>
</svg>
