<svg width="89" height="106" viewBox="0 0 89 106" fill="none" xmlns="http://www.w3.org/2000/svg">
<path opacity="0.2" d="M80.186 41.431C82.15 39.819 83.189 37.325 82.973 34.798C82.967 33.871 82.654 32.83 82.069 31.813C81.305 30.388 80.151 29.292 78.787 28.597C78.646 28.523 78.507 28.45 78.366 28.388C78.183 28.308 77.995 28.242 77.806 28.177C77.719 28.149 77.633 28.118 77.546 28.095C76.611 27.807 75.627 27.673 74.63 27.757C75.599 25.875 75.732 23.684 75.054 21.708C74.779 20.339 73.749 18.834 72.166 17.707C70.146 16.268 67.852 15.897 66.405 16.612C65.61 16.753 64.833 17.018 64.105 17.408C64.311 15.311 63.639 13.234 62.3 11.653C62.099 11.413 61.872 11.181 61.625 10.958C61.42 10.77 61.195 10.604 60.968 10.437C60.863 10.361 60.768 10.279 60.657 10.206C60.48 10.09 60.292 9.99 60.103 9.887C59.969 9.812 59.847 9.728 59.707 9.659C59.622 9.617 59.536 9.591 59.45 9.552C59.418 9.538 59.391 9.519 59.359 9.505C59.328 9.492 59.296 9.487 59.266 9.475C57.418 8.686 55.557 8.627 54.299 9.232C52.84 9.65 51.508 10.478 50.507 11.664C49.509 8.549 46.592 6.293 43.146 6.293C39.654 6.293 36.706 8.609 35.747 11.788C35.044 10.931 34.163 10.267 33.195 9.788C32.007 8.875 29.99 8.535 27.86 9.053C25.546 9.615 23.792 11.013 23.297 12.506C22.381 13.927 21.927 15.624 22.072 17.345C19.164 15.848 15.506 16.315 13.069 18.752C10.6 21.221 10.153 24.944 11.723 27.87C8.41799 27.545 5.15299 29.388 3.82199 32.616C2.50799 35.802 3.48299 39.358 5.98199 41.468C2.86699 42.466 0.610992 45.383 0.610992 48.829C0.610992 52.321 2.92699 55.269 6.10599 56.228C3.53899 58.335 2.53399 61.947 3.87499 65.171C5.19899 68.353 8.40299 70.179 11.662 69.903C10.816 71.546 10.62 73.424 11.029 75.19C10.706 76.154 10.385 77.118 10.07 78.075C10.062 78.099 10.054 78.124 10.046 78.148C9.93299 78.49 9.82199 78.831 9.71099 79.17C9.69899 79.206 9.68799 79.241 9.67599 79.277C9.55899 79.634 9.44399 79.99 9.32899 80.344C9.32799 80.346 9.328 80.348 9.327 80.351C6.67 88.564 4.65399 95.68 5.44599 96.22C7.37999 97.539 22.051 91.916 22.051 91.916C22.051 91.916 32.33 105.579 34.671 105.213C35.52 105.08 37.444 99.548 39.552 92.55C39.566 92.502 39.581 92.454 39.595 92.406C39.757 91.869 39.919 91.325 40.082 90.774C40.084 90.766 40.087 90.759 40.089 90.751C40.093 90.739 40.096 90.727 40.1 90.715C41.037 91.119 42.059 91.364 43.144 91.364C44.23 91.364 45.251 91.118 46.188 90.714C46.19 90.722 46.193 90.73 46.195 90.739C46.2 90.755 46.205 90.771 46.209 90.787C46.369 91.329 46.529 91.863 46.687 92.39C46.706 92.454 46.725 92.518 46.745 92.581C46.904 93.11 47.063 93.632 47.22 94.142C47.221 94.144 47.221 94.145 47.222 94.147C49.136 100.372 50.834 105.09 51.617 105.212C53.959 105.578 64.237 91.915 64.237 91.915C64.237 91.915 78.908 97.539 80.842 96.219C81.634 95.679 79.618 88.564 76.961 80.351C76.958 80.343 76.956 80.334 76.953 80.326C76.84 79.976 76.725 79.623 76.61 79.27C76.6 79.239 76.59 79.208 76.58 79.178C76.471 78.843 76.36 78.507 76.249 78.17C76.237 78.133 76.225 78.096 76.212 78.059C75.899 77.108 75.58 76.149 75.258 75.19C75.676 73.383 75.461 71.458 74.565 69.788C77.87 70.113 81.135 68.27 82.466 65.042C83.78 61.856 82.806 58.3 80.306 56.19C83.128 55.286 85.226 52.802 85.6 49.782C85.64 49.53 85.664 49.269 85.664 48.995C85.665 48.939 85.678 48.886 85.678 48.83C85.682 45.338 83.365 42.39 80.186 41.431Z" fill="black"/>
<path d="M70.123 48.837L45.298 56.476L20.473 48.837C20.473 48.837 5.665 89.355 7.599 90.674C9.533 91.993 24.204 86.37 24.204 86.37C24.204 86.37 34.483 100.033 36.824 99.667C38.152 99.46 42.116 86.027 45.297 74.439C48.479 86.027 52.442 99.46 53.77 99.667C56.112 100.033 66.39 86.37 66.39 86.37C66.39 86.37 81.061 91.994 82.995 90.674C84.931 89.355 70.123 48.837 70.123 48.837Z" fill="#4150E8"/>
<path d="M70.123 48.837L45.298 56.476L20.473 48.837C20.473 48.837 15.311 62.963 11.48 74.805C11.78 75.251 12.112 75.682 12.506 76.076C15.198 78.768 19.257 79.255 22.447 77.544C22.093 81.147 24.102 84.707 27.621 86.158C31.095 87.59 34.972 86.528 37.272 83.803C37.931 85.86 39.365 87.562 41.222 88.594C42.555 84.259 43.992 79.195 45.297 74.44C46.604 79.198 48.041 84.266 49.375 88.603C51.274 87.549 52.725 85.786 53.364 83.668C55.661 86.466 59.599 87.563 63.114 86.1C66.583 84.656 68.574 81.164 68.273 77.61C71.444 79.242 75.432 78.733 78.088 76.076C78.482 75.682 78.815 75.252 79.114 74.806C75.285 62.964 70.123 48.837 70.123 48.837Z" fill="#1B3AB9"/>
<path d="M70.123 48.837L45.298 56.476L20.473 48.837C20.473 48.837 5.665 89.355 7.599 90.674C9.533 91.993 24.204 86.37 24.204 86.37C24.204 86.37 34.483 100.033 36.824 99.667C38.152 99.46 42.116 86.027 45.297 74.439C48.479 86.027 52.442 99.46 53.77 99.667C56.112 100.033 66.39 86.37 66.39 86.37C66.39 86.37 81.061 91.994 82.995 90.674C84.931 89.355 70.123 48.837 70.123 48.837Z" stroke="#291F8B" stroke-width="1.0233" stroke-miterlimit="10"/>
<path d="M87.832 43.284C87.832 39.792 85.516 36.844 82.337 35.885C84.904 33.778 85.909 30.166 84.568 26.942C83.244 23.76 80.04 21.934 76.781 22.21C78.278 19.302 77.811 15.644 75.374 13.207C72.905 10.738 69.182 10.291 66.256 11.861C66.581 8.55599 64.738 5.29099 61.51 3.95999C58.324 2.64599 54.768 3.621 52.658 6.12C51.66 3.005 48.743 0.748993 45.297 0.748993C41.805 0.748993 38.857 3.065 37.898 6.244C35.791 3.677 32.179 2.67199 28.955 4.01299C25.773 5.33699 23.947 8.541 24.223 11.8C21.315 10.303 17.657 10.77 15.22 13.207C12.751 15.676 12.304 19.399 13.874 22.325C10.569 22 7.30399 23.843 5.97299 27.071C4.65899 30.257 5.63399 33.813 8.13299 35.923C5.01799 36.921 2.76199 39.838 2.76199 43.284C2.76199 46.776 5.07799 49.724 8.25699 50.683C5.68999 52.79 4.68499 56.402 6.02599 59.626C7.34999 62.808 10.554 64.634 13.813 64.358C12.316 67.266 12.783 70.924 15.22 73.361C17.689 75.83 21.412 76.277 24.338 74.707C24.013 78.012 25.856 81.277 29.084 82.608C32.27 83.922 35.826 82.948 37.936 80.448C38.934 83.563 41.851 85.819 45.297 85.819C48.789 85.819 51.737 83.503 52.696 80.324C54.803 82.891 58.415 83.896 61.639 82.555C64.821 81.231 66.647 78.027 66.371 74.768C69.279 76.265 72.937 75.798 75.374 73.361C77.843 70.892 78.29 67.169 76.72 64.243C80.025 64.568 83.29 62.725 84.621 59.497C85.935 56.311 84.961 52.755 82.461 50.645C85.576 49.647 87.832 46.73 87.832 43.284Z" fill="#68A0FF"/>
<path d="M76.823 18.391C75.663 20.02 74.749 17.434 72.204 15.622C69.66 13.81 66.449 13.457 67.609 11.828C68.769 10.199 71.773 10.348 74.317 12.16C76.862 13.973 77.984 16.762 76.823 18.391Z" fill="#9BCAFF"/>
<path d="M84.258 31.494C82.76 32.819 82.453 30.093 80.384 27.753C78.315 25.413 75.267 24.344 76.765 23.019C78.263 21.694 81.155 22.518 83.224 24.858C85.294 27.198 85.756 30.169 84.258 31.494Z" fill="#9BCAFF"/>
<path d="M86.464 46.387C84.741 47.402 84.959 44.668 83.373 41.977C81.787 39.286 78.998 37.657 80.721 36.641C82.444 35.625 85.127 36.984 86.713 39.675C88.298 42.367 88.187 45.371 86.464 46.387Z" fill="#9BCAFF"/>
<path d="M65.331 9.862C64.447 11.656 63.13 9.25001 60.328 7.87001C57.526 6.48901 54.3 6.657 55.184 4.863C56.068 3.069 59.056 2.734 61.858 4.114C64.66 5.494 66.215 8.068 65.331 9.862Z" fill="#9BCAFF"/>
<path d="M50.954 4.57999C50.946 6.57999 48.708 4.99499 45.584 4.98299C42.46 4.97099 39.634 6.53599 39.642 4.53599C39.65 2.53599 42.189 0.924987 45.312 0.936987C48.436 0.948987 50.962 2.57999 50.954 4.57999Z" fill="#9BCAFF"/>
<path d="M36.363 5.69299C36.835 7.63599 34.282 6.63499 31.246 7.37299C28.211 8.11099 25.843 10.308 25.37 8.36499C24.898 6.42199 26.975 4.24799 30.011 3.50999C33.047 2.77199 35.891 3.74899 36.363 5.69299Z" fill="#9BCAFF"/>
<path d="M87.832 43.284C87.832 39.792 85.516 36.844 82.337 35.885C84.904 33.778 85.909 30.166 84.568 26.942C83.244 23.76 80.04 21.934 76.781 22.21C78.278 19.302 77.811 15.644 75.374 13.207C72.905 10.738 69.182 10.291 66.256 11.861C66.581 8.55599 64.738 5.29099 61.51 3.95999C58.324 2.64599 54.768 3.621 52.658 6.12C51.66 3.005 48.743 0.748993 45.297 0.748993C41.805 0.748993 38.857 3.065 37.898 6.244C35.791 3.677 32.179 2.67199 28.955 4.01299C25.773 5.33699 23.947 8.541 24.223 11.8C21.315 10.303 17.657 10.77 15.22 13.207C12.751 15.676 12.304 19.399 13.874 22.325C10.569 22 7.30399 23.843 5.97299 27.071C4.65899 30.257 5.63399 33.813 8.13299 35.923C5.01799 36.921 2.76199 39.838 2.76199 43.284C2.76199 46.776 5.07799 49.724 8.25699 50.683C5.68999 52.79 4.68499 56.402 6.02599 59.626C7.34999 62.808 10.554 64.634 13.813 64.358C12.316 67.266 12.783 70.924 15.22 73.361C17.689 75.83 21.412 76.277 24.338 74.707C24.013 78.012 25.856 81.277 29.084 82.608C32.27 83.922 35.826 82.948 37.936 80.448C38.934 83.563 41.851 85.819 45.297 85.819C48.789 85.819 51.737 83.503 52.696 80.324C54.803 82.891 58.415 83.896 61.639 82.555C64.821 81.231 66.647 78.027 66.371 74.768C69.279 76.265 72.937 75.798 75.374 73.361C77.843 70.892 78.29 67.169 76.72 64.243C80.025 64.568 83.29 62.725 84.621 59.497C85.935 56.311 84.961 52.755 82.461 50.645C85.576 49.647 87.832 46.73 87.832 43.284Z" stroke="#4455BF" stroke-width="1.0233" stroke-miterlimit="10"/>
<path d="M45.298 72.517C61.4429 72.517 74.531 59.4289 74.531 43.284C74.531 27.139 61.4429 14.051 45.298 14.051C29.1531 14.051 16.065 27.139 16.065 43.284C16.065 59.4289 29.1531 72.517 45.298 72.517Z" fill="#9BCAFF"/>
<path d="M45.298 71.456C60.857 71.456 73.47 58.843 73.47 43.284C73.47 27.725 60.857 15.112 45.298 15.112C29.739 15.112 17.126 27.725 17.126 43.284C17.126 58.843 29.739 71.456 45.298 71.456Z" fill="#4C8ED6"/>
<path d="M45.298 69.168C59.5933 69.168 71.182 57.5793 71.182 43.284C71.182 28.9887 59.5933 17.4 45.298 17.4C31.0027 17.4 19.414 28.9887 19.414 43.284C19.414 57.5793 31.0027 69.168 45.298 69.168Z" fill="#63C3FF"/>
<path d="M36.4866 52.6467C35.2228 52.6467 34.0963 52.4297 33.107 51.9956C32.124 51.5616 31.3421 50.9584 30.7613 50.1861C30.1868 49.4074 29.8741 48.5043 29.823 47.4766H32.2357C32.2868 48.1085 32.5038 48.6543 32.8868 49.1138C33.2697 49.567 33.7708 49.918 34.3899 50.167C35.009 50.4159 35.6952 50.5404 36.4483 50.5404C37.2909 50.5404 38.0376 50.3936 38.6887 50.1C39.3397 49.8063 39.8504 49.3978 40.2206 48.8745C40.5908 48.3511 40.7759 47.7447 40.7759 47.0554C40.7759 46.3341 40.5971 45.699 40.2397 45.1501C39.8823 44.5948 39.3589 44.1608 38.6695 43.848C37.9802 43.5353 37.1377 43.3789 36.142 43.3789H34.5718V41.2726H36.142C36.9207 41.2726 37.6036 41.1322 38.1908 40.8513C38.7844 40.5705 39.2472 40.1748 39.5791 39.6641C39.9174 39.1535 40.0865 38.5535 40.0865 37.8642C40.0865 37.2004 39.9397 36.6227 39.6461 36.1313C39.3525 35.6398 38.9376 35.2568 38.4015 34.9824C37.8717 34.7079 37.2462 34.5707 36.5249 34.5707C35.8484 34.5707 35.2101 34.6951 34.6101 34.9441C34.0165 35.1866 33.5314 35.5409 33.1548 36.0068C32.7782 36.4664 32.574 37.0217 32.5421 37.6727H30.2443C30.2826 36.6451 30.5922 35.7451 31.173 34.9728C31.7538 34.1941 32.5134 33.5877 33.4516 33.1537C34.3963 32.7197 35.4335 32.5027 36.5632 32.5027C37.776 32.5027 38.8163 32.7484 39.6844 33.2399C40.5525 33.725 41.2195 34.3664 41.6854 35.1643C42.1513 35.9621 42.3843 36.8238 42.3843 37.7493C42.3843 38.8535 42.0939 39.795 41.5131 40.5737C40.9386 41.3524 40.1567 41.8917 39.1674 42.1917V42.3449C40.4057 42.5491 41.3726 43.0757 42.0684 43.9246C42.7641 44.7672 43.1119 45.8107 43.1119 47.0554C43.1119 48.1213 42.8215 49.0787 42.2407 49.9276C41.6662 50.7701 40.8812 51.434 39.8855 51.919C38.8897 52.4041 37.7568 52.6467 36.4866 52.6467ZM50.7802 42.3318V43.6399H45.5737V42.3318H50.7802ZM47.0911 39.9247H48.6348V49.5006C48.6348 49.9367 48.698 50.2637 48.8245 50.4817C48.9553 50.6954 49.121 50.8393 49.3216 50.9134C49.5265 50.9832 49.7424 51.0181 49.9691 51.0181C50.1392 51.0181 50.2787 51.0094 50.3878 50.9919C50.4968 50.9701 50.584 50.9527 50.6494 50.9396L50.9634 52.3263C50.8587 52.3655 50.7126 52.4048 50.5251 52.444C50.3376 52.4876 50.1 52.5094 49.8122 52.5094C49.3761 52.5094 48.9488 52.4157 48.5301 52.2282C48.1159 52.0407 47.7714 51.755 47.4967 51.3713C47.2263 50.9876 47.0911 50.5035 47.0911 49.9192V39.9247ZM54.8617 46.3348V52.3786H53.3181V38.9828H54.8617V43.9016H54.9926C55.228 43.3827 55.5812 42.9706 56.0522 42.6654C56.5275 42.3557 57.1598 42.2009 57.9491 42.2009C58.6337 42.2009 59.2332 42.3383 59.7478 42.613C60.2624 42.8834 60.6613 43.2998 60.9448 43.8623C61.2326 44.4205 61.3765 45.1313 61.3765 45.9947V52.3786H59.8328V46.0993C59.8328 45.3013 59.6257 44.6843 59.2114 44.2483C58.8015 43.8078 58.2325 43.5876 57.5043 43.5876C56.9984 43.5876 56.5449 43.6945 56.1438 43.9081C55.7469 44.1218 55.433 44.4336 55.2019 44.8435C54.9751 45.2534 54.8617 45.7505 54.8617 46.3348Z" fill="#4150E8"/>
<path d="M45.298 71.456C60.857 71.456 73.47 58.843 73.47 43.284C73.47 27.725 60.857 15.112 45.298 15.112C29.739 15.112 17.126 27.725 17.126 43.284C17.126 58.843 29.739 71.456 45.298 71.456Z" stroke="#4455BF" stroke-width="1.0233" stroke-miterlimit="10"/>
</svg>
