<svg width="77" height="103" viewBox="0 0 77 103" fill="none" xmlns="http://www.w3.org/2000/svg">
<path opacity="0.2" d="M13.479 71.304C13.478 71.328 13.478 71.353 13.477 71.377C13.469 71.726 13.462 72.074 13.454 72.422C13.45 72.626 13.445 72.83 13.441 73.033C13.43 73.56 13.42 74.086 13.41 74.61C13.41 74.633 13.409 74.655 13.409 74.678C13.144 89.101 13.332 102.056 14.838 102.522C18.279 103.587 37.304 88.681 37.304 88.681C37.304 88.681 58.597 104.119 61.875 102.522C63.46 101.75 63.512 85.978 63.143 69.895C69.983 63.23 74.236 53.924 74.236 43.619C74.236 39.539 73.56 35.62 72.331 31.954C72.33 31.952 72.329 31.949 72.328 31.947C72.134 31.37 71.927 30.799 71.706 30.235C71.704 30.229 71.702 30.224 71.699 30.218C71.479 29.657 71.245 29.103 70.999 28.556C70.995 28.548 70.991 28.539 70.988 28.531C70.742 27.986 70.483 27.448 70.211 26.918C70.207 26.91 70.202 26.901 70.198 26.893C69.926 26.363 69.641 25.84 69.344 25.325C69.34 25.317 69.335 25.31 69.331 25.302C69.033 24.785 68.722 24.277 68.4 23.777C68.397 23.773 68.394 23.768 68.391 23.763C62.898 15.247 53.981 9.15299 43.582 7.42999C43.081 7.20999 42.488 7.03699 41.833 6.94699C41.046 6.83899 40.312 6.868 39.704 6.995C38.989 6.953 38.269 6.92699 37.543 6.92699C17.278 6.92699 0.851013 23.355 0.851013 43.62C0.852013 54.672 5.746 64.577 13.479 71.304Z" fill="black"/>
<path d="M64.026 96.977C60.748 98.574 39.455 83.136 39.455 83.136C39.455 83.136 20.429 98.041 16.989 96.977C13.549 95.913 16.989 29.641 16.989 29.641H64.026C64.026 29.641 67.303 95.38 64.026 96.977Z" fill="#FF2B42"/>
<path d="M15.56 69.133C22.225 74.319 30.596 77.417 39.695 77.417C49.509 77.417 58.476 73.815 65.368 67.873C65.024 49.661 64.026 29.641 64.026 29.641H16.989C16.989 29.641 15.9 50.599 15.56 69.133Z" fill="#C72B42"/>
<path d="M64.026 96.977C60.748 98.574 39.455 83.136 39.455 83.136C39.455 83.136 20.429 98.041 16.989 96.977C13.549 95.913 16.989 29.641 16.989 29.641H64.026C64.026 29.641 67.303 95.38 64.026 96.977Z" stroke="#650032" stroke-width="1.0233" stroke-miterlimit="10"/>
<path d="M39.695 74.766C59.96 74.766 76.388 58.338 76.388 38.073C76.388 17.808 59.96 1.37999 39.695 1.37999C19.43 1.37999 3.00201 17.808 3.00201 38.073C3.00201 58.338 19.43 74.766 39.695 74.766Z" fill="#D38F1D"/>
<path d="M39.695 69.39C56.9909 69.39 71.012 55.3689 71.012 38.073C71.012 20.7771 56.9909 6.756 39.695 6.756C22.3991 6.756 8.37799 20.7771 8.37799 38.073C8.37799 55.3689 22.3991 69.39 39.695 69.39Z" fill="#E8A331"/>
<path d="M47.1865 3.45115C47.3079 2.5686 45.8681 1.64151 43.9706 1.38045C42.0731 1.11939 40.4364 1.62322 40.315 2.50577C40.1936 3.38832 41.6334 4.31541 43.5309 4.57646C45.4284 4.83752 47.0651 4.3337 47.1865 3.45115Z" fill="#F7BC63"/>
<path d="M75.478 29.968C74.385 25.121 72.334 20.64 69.532 16.73C68.316 15.283 66.994 13.854 65.605 12.522C63.51 10.514 61.338 8.63399 59.28 7.05099C56.29 5.15899 53.009 3.68899 49.517 2.72099C49.469 2.75799 49.414 2.78599 49.366 2.82399C45.345 6.04899 56.766 8.59299 63.535 15.082C69.958 21.238 70.712 32.901 75.478 29.968Z" fill="#F7BC63"/>
<path d="M39.695 74.766C59.96 74.766 76.388 58.338 76.388 38.073C76.388 17.808 59.96 1.37999 39.695 1.37999C19.43 1.37999 3.00201 17.808 3.00201 38.073C3.00201 58.338 19.43 74.766 39.695 74.766Z" stroke="#7E4C1D" stroke-width="1.0233" stroke-miterlimit="10"/>
<path d="M39.695 67.433C55.9101 67.433 69.055 54.2881 69.055 38.073C69.055 21.8579 55.9101 8.713 39.695 8.713C23.4799 8.713 10.335 21.8579 10.335 38.073C10.335 54.2881 23.4799 67.433 39.695 67.433Z" fill="#F7BC63"/>
<path d="M37.3748 11.9809C39.2901 11.9786 40.8419 11.2545 40.8409 10.3637C40.8398 9.47286 39.2862 8.75256 37.3709 8.75486C35.4556 8.75715 33.9038 9.48118 33.9049 10.372C33.9059 11.2629 35.4595 11.9832 37.3748 11.9809Z" fill="#FFD092"/>
<path d="M69.055 36.028C69.055 38.073 67.015 37.63 66.473 37.141C64.432 35.301 62.954 25.908 57.605 20.782C50.835 14.294 38.417 13.214 43.65 8.564C43.65 8.564 53.699 11.169 60.469 17.657C67.239 24.145 69.055 35.439 69.055 36.028Z" fill="#FFD092"/>
<path opacity="0.3" d="M39.695 8.713C23.48 8.713 10.335 21.858 10.335 38.073C10.335 54.288 23.48 67.433 39.695 67.433C55.91 67.433 69.055 54.288 69.055 38.073C69.055 21.858 55.91 8.713 39.695 8.713ZM39.695 66.064C24.236 66.064 11.704 53.532 11.704 38.073C11.704 22.614 24.236 10.082 39.695 10.082C55.154 10.082 67.686 22.614 67.686 38.073C67.686 53.532 55.154 66.064 39.695 66.064Z" fill="#7E4C1D"/>
<path d="M39.695 67.433C55.9101 67.433 69.055 54.2881 69.055 38.073C69.055 21.8579 55.9101 8.713 39.695 8.713C23.4799 8.713 10.335 21.8579 10.335 38.073C10.335 54.2881 23.4799 67.433 39.695 67.433Z" stroke="#7E4C1D" stroke-width="1.0233" stroke-miterlimit="10"/>
<path d="M18.874 32.868C18.943 32.516 19.118 32.219 19.349 32.087C22.025 30.563 26.31 29.068 30.998 27.805C33.825 23.871 36.774 20.516 39.184 18.525C39.39 18.355 39.733 18.26 40.108 18.262C40.478 18.265 40.824 18.364 41.025 18.537C43.333 20.519 46.142 23.816 48.845 27.688C53.633 29.046 58.028 30.652 60.743 32.267C60.97 32.403 61.142 32.699 61.206 33.049C61.271 33.399 61.227 33.756 61.091 34.002C59.513 36.844 57.361 40.338 54.506 44.078C54.62 48.763 54.515 53.187 54.21 56.856C54.185 57.166 53.975 57.475 53.653 57.674C53.33 57.874 52.939 57.939 52.618 57.856C48.841 56.878 44.577 55.783 39.949 54.284C35.31 55.744 31.036 56.802 27.25 57.748C27.13 57.778 27.002 57.787 26.871 57.777C26.648 57.759 26.419 57.686 26.219 57.559C25.898 57.358 25.69 57.049 25.667 56.739C25.364 53.006 25.276 48.494 25.415 43.729C22.628 40.046 20.528 36.62 18.984 33.827C18.847 33.581 18.805 33.221 18.874 32.868Z" fill="#E8A331"/>
<path d="M59.894 31.799C57.159 30.344 53.168 28.915 48.845 27.689C46.141 23.817 43.333 20.52 41.025 18.538C40.824 18.365 40.478 18.266 40.108 18.263C39.733 18.261 39.389 18.356 39.184 18.526C37.798 19.672 36.231 21.279 34.613 23.178C34.642 23.232 36.208 24.589 38.393 21.817C40.61 19.003 46.447 29.217 47.536 29.641C48.625 30.065 61.237 34.542 61.232 33.398C61.229 32.774 59.907 31.811 59.894 31.799Z" fill="#F7BC63"/>
<path d="M18.874 32.868C18.943 32.516 19.118 32.219 19.349 32.087C22.025 30.563 26.31 29.068 30.998 27.805C33.825 23.871 36.774 20.516 39.184 18.525C39.39 18.355 39.733 18.26 40.108 18.262C40.478 18.265 40.824 18.364 41.025 18.537C43.333 20.519 46.142 23.816 48.845 27.688C53.633 29.046 58.028 30.652 60.743 32.267C60.97 32.403 61.142 32.699 61.206 33.049C61.271 33.399 61.227 33.756 61.091 34.002C59.513 36.844 57.361 40.338 54.506 44.078C54.62 48.763 54.515 53.187 54.21 56.856C54.185 57.166 53.975 57.475 53.653 57.674C53.33 57.874 52.939 57.939 52.618 57.856C48.841 56.878 44.577 55.783 39.949 54.284C35.31 55.744 31.036 56.802 27.25 57.748C27.13 57.778 27.002 57.787 26.871 57.777C26.648 57.759 26.419 57.686 26.219 57.559C25.898 57.358 25.69 57.049 25.667 56.739C25.364 53.006 25.276 48.494 25.415 43.729C22.628 40.046 20.528 36.62 18.984 33.827C18.847 33.581 18.805 33.221 18.874 32.868Z" stroke="#7E4C1D" stroke-width="1.0233" stroke-miterlimit="10"/>
</svg>
